
<svg width="133" height="75" xmlns="http://www.w3.org/2000/svg">
    <defs>
        <path id="U"
            d="M451 259q-11 -59 -25 -108q-16 -54 -39 -88q-25 -37 -63 -58t-92 -21q-80 0 -118 47q-37 46 -37 124q0 33 2 50q2 13 8 54l78 449h22l-76 -438q-8 -52 -9 -60q-3 -32 -3 -53q0 -33 7 -60q8 -29 22 -49q14 -19 41 -32q25 -12 62 -12q53 0 88 23q34 22 57 61q22 37 34 84 t21 98l76 438h22z"/>
        <path id="N" d="M369 0l-180 682h-2l-118 -682h-22l123 708h36l179 -681h2l118 681h22l-123 -708h-35z" />
        <path id="L" d="M47 0l123 708h22l-119 -687h207l-4 -21h-229z" />
        <path id="O"
            d="M349 724q43 0 75 -18t53 -50q20 -30 31 -77q10 -43 10 -101q0 -56 -9 -114q-8 -55 -26 -114q-15 -52 -41 -103q-24 -49 -56 -85t-69 -57t-82 -21q-43 0 -75 18q-33 19 -53 49t-31 77q-10 43 -10 100q0 63 8 115q8 55 26 114t40 104q24 49 56 85q32 37 70 57q39 21 83 21z M349 704q-65 0 -112 -46q-51 -49 -82 -116q-34 -73 -50 -154q-17 -87 -17 -160q0 -50 9 -90q9 -41 27 -71q17 -28 46 -46q28 -17 65 -17q40 0 76 21q37 22 65 57q29 37 51 82q21 43 37 100q18 62 24 107q8 58 8 104q0 50 -9 92q-9 41 -28 73q-18 30 -46 47t-64 17z" />
        <path id="S"
            d="M174 -16q-50 0 -91 23q-39 22 -65 60l18 15q22 -37 60 -58q36 -20 78 -20q32 0 63 14q29 13 51 38q20 23 34 57q13 32 13 75q0 30 -9 55q-7 20 -25 45q-13 19 -35 37t-39 29q-16 10 -42 30q-21 16 -37 37q-18 23 -26 46q-9 25 -9 57q0 44 15 80q16 39 39 63q26 27 58 42 q33 15 70 15q44 0 77 -15t54 -49l-16 -13q-21 32 -50 44q-31 13 -67 13q-27 0 -56 -12t-51 -34q-20 -20 -37 -57q-15 -33 -15 -76q0 -29 9 -51q9 -23 22 -40q14 -18 32 -32q32 -24 35 -26q32 -22 47 -34q22 -18 40 -40q17 -21 28 -50q10 -26 10 -61q0 -50 -14 -85 q-16 -39 -40 -65q-25 -27 -59 -42q-33 -15 -70 -15z" />
        <path id="T" d="M241 688l-121 -688h-22l121 688h-140l4 20h302l-4 -20h-140z" />
    </defs>
    <style>
        path {
            fill: #00d;
            /* adjust stroke width to scale of logo */
            stroke-width: 20;
            stroke: #00d;
        }
    </style>
    <g transform="scale(.053, -.053)">
        <use href="#U" x="0" y="-1370"/>
        <use href="#N" x="460" y="-1370" />
        <use href="#L" x="910" y="-1370" />
        <use href="#O" x="1180" y="-1370" />
        <use href="#S" x="1660" y="-1370" />
        <use href="#T" x="2080" y="-1370" />
    </g>
</svg>